<svg id="Layer_1" data-name="Layer 1" xmlns="http://www.w3.org/2000/svg" viewBox="0 0 800 800"><title>izdArtboard 1@svg</title><path d="M500.22,693.33H302.36L318.69,678h73.69V591.2H137.77L392.38,395.54V222.81H136.28L299.91,106.67H497.75L475.85,122H407.73v85.43H662.34L407.73,403.11V575.84H663.57ZM407.73,678h87.54L615.93,591.2H407.73ZM183,575.84H392.38V414.91Zm224.78-353V383.74L617.16,222.81ZM184.44,207.45H392.38V122H304.81Z"/><polygon points="394.58 236.52 184 236.52 208.4 227.99 394.58 227.99 394.58 236.52"/><polygon points="403.35 571.95 613.93 571.95 589.53 563.42 403.35 563.42 403.35 571.95"/><polygon points="402.89 382.76 235.66 510.75 249.86 489.14 397.71 375.98 402.89 382.76"/><polygon points="399.68 413.75 566.9 285.76 552.71 307.37 404.86 420.52 399.68 413.75"/></svg>